<svg width="20" height="21" viewBox="0 0 31 32" fill="none" xmlns="http://www.w3.org/2000/svg">
<path d="M11.1668 26.6667C10.6724 26.6667 10.189 26.8133 9.7779 27.088C9.36678 27.3627 9.04635 27.7531 8.85713 28.21C8.66791 28.6668 8.6184 29.1694 8.71487 29.6544C8.81133 30.1393 9.04943 30.5848 9.39906 30.9344C9.74869 31.2841 10.1942 31.5222 10.6791 31.6186C11.1641 31.7151 11.6667 31.6656 12.1235 31.4764C12.5804 31.2871 12.9708 30.9667 13.2455 30.5556C13.5202 30.1445 13.6668 29.6611 13.6668 29.1667C13.6668 28.5036 13.4034 27.8677 12.9346 27.3989C12.4658 26.9301 11.8299 26.6667 11.1668 26.6667ZM28.6668 21.6667H8.66683C8.2248 21.6667 7.80088 21.4911 7.48832 21.1785C7.17576 20.8659 7.00016 20.442 7.00016 20C7.00016 19.558 7.17576 19.134 7.48832 18.8215C7.80088 18.5089 8.2248 18.3333 8.66683 18.3333H22.8188C23.9046 18.3298 24.9599 17.9746 25.8267 17.3208C26.6935 16.667 27.3251 15.75 27.6268 14.707L30.2692 5.45817C30.3401 5.21012 30.3524 4.949 30.3053 4.69537C30.2581 4.44175 30.1527 4.20253 29.9974 3.99655C29.842 3.79058 29.641 3.62347 29.4101 3.50838C29.1793 3.3933 28.9248 3.33338 28.6668 3.33333H8.23195C7.88692 2.36226 7.2509 1.52118 6.41054 0.92469C5.57017 0.328197 4.56634 0.00530125 3.53581 0H2.00016C1.55814 0 1.13421 0.175595 0.821651 0.488155C0.509091 0.800716 0.333496 1.22464 0.333496 1.66667C0.333496 2.10869 0.509091 2.53262 0.821651 2.84518C1.13421 3.15774 1.55814 3.33333 2.00016 3.33333H3.53581C3.89762 3.3346 4.24928 3.45302 4.53814 3.67088C4.827 3.88874 5.03752 4.19431 5.13818 4.54183L5.39738 5.44973L5.39778 5.45817L8.13216 15.0285C6.85977 15.1654 5.68828 15.7849 4.85894 16.7595C4.02959 17.7342 3.60552 18.9897 3.67404 20.2676C3.74256 21.5455 4.29846 22.7485 5.22727 23.6289C6.15608 24.5092 7.38709 25 8.66683 25H28.6668C29.1089 25 29.5328 24.8244 29.8453 24.5118C30.1579 24.1993 30.3335 23.7754 30.3335 23.3333C30.3335 22.8913 30.1579 22.4674 29.8453 22.1548C29.5328 21.8423 29.1089 21.6667 28.6668 21.6667ZM26.4574 6.66667L24.422 13.7907C24.3215 14.1385 24.1109 14.4443 23.8219 14.6624C23.5328 14.8804 23.1809 14.9989 22.8188 15H11.5908L11.1659 13.513L9.21086 6.66667H26.4574ZM24.5002 26.6667C24.0057 26.6667 23.5224 26.8133 23.1112 27.088C22.7001 27.3627 22.3797 27.7531 22.1905 28.21C22.0012 28.6668 21.9517 29.1694 22.0482 29.6544C22.1447 30.1393 22.3828 30.5848 22.7324 30.9344C23.082 31.2841 23.5275 31.5222 24.0124 31.6186C24.4974 31.7151 25.0001 31.6656 25.4569 31.4764C25.9137 31.2871 26.3041 30.9667 26.5788 30.5556C26.8535 30.1445 27.0002 29.6611 27.0002 29.1667C27.0002 28.5036 26.7368 27.8677 26.2679 27.3989C25.7991 26.9301 25.1632 26.6667 24.5002 26.6667Z" fill="#527723"/>
</svg>
